# xmcd
#
# Track frame offsets:
#	150
#	10637
#	21130
#	33575
#	51927
#	71497
#	90972
#	105015
#	118605
#	132957
#	145585
#	156365
#	167717
#	180812
#	195147
#	206327
#
# Disc length: 2856
#
# Revision: 6
# Processed by: cddbd v1.5.1PL0 Copyright (c) Steve Scherf et al.
# Submitted via: Grip 3.0.1
# Normalized: r4:TSWAP
#
DISCID=b80b2610
DTITLE=Various Artist - THIS IS COUNTRY (VOL THREE)
DYEAR=1900
DGENRE=Country
TTITLE0=Gerald W Group - MONEY
TTITLE1=Patsy Cline - HONKY TONK MERRY GO ROUND
TTITLE2=Franke Laine - HIGH NOON
TTITLE3=Kenny Rogers - THE KING OF OAK STREET
TTITLE4=Federation - DON`T STEP OUT OF LINE
TTITLE5=Tina Turner - LOVIN HIM WAS EASIER
TTITLE6=Kenny Rogers - SUNSHINE
TTITLE7=Tina Turner - FREEDOM TO STAY
TTITLE8=Jim Reeves - HIGHWAY TO NOWHERE
TTITLE9=Kitty Wells - MAKING BELIEVE
TTITLE10=Freddy Fender - THE WILD SIDE OF LIFE
TTITLE11=Rick Nelson - POOR LITTLE FOOL
TTITLE12=Kenny Rogers - RUBY DON'T TAKE YOUR LOVE TO TOWN
TTITLE13=Federation - MEET ME ON THE CORNER
TTITLE14=Ferlin Husky - SAN ANTONIO ROSE
TTITLE15=Jim Reeves - TILL THE END OF THE WORLD
EXTD=
EXTT0=
EXTT1=
EXTT2=
EXTT3=
EXTT4=
EXTT5=
EXTT6=
EXTT7=
EXTT8=
EXTT9=
EXTT10=
EXTT11=
EXTT12=
EXTT13=
EXTT14=
EXTT15=
PLAYORDER=
